<svg version="1.1" xmlns="http://www.w3.org/2000/svg" xmlns:xlink="http://www.w3.org/1999/xlink"
       viewBox="0 0 31.0547 19.8047">
       <g>
              <rect height="19.8047" opacity="0" width="31.0547" x="0" y="0" />
              <path
                     d="M0 11.0078C0 16.2891 4.94531 19.8047 12.4844 19.8047C20.0312 19.8047 24.9766 16.2891 24.9766 11.0078C24.9766 8.80469 19.7188 7.05469 12.4844 7.05469C5.25781 7.05469 0 8.80469 0 11.0078ZM1.38281 11.0078C1.38281 9.71875 7.14062 8.35938 12.4844 8.35938C17.8203 8.35938 23.5938 9.71875 23.5938 11.0078C23.5938 12.1953 18.4219 13.6094 12.4844 13.6094C6.55469 13.6094 1.38281 12.1953 1.38281 11.0078ZM23 9.84375L29.5234 5.78125C32.1875 4.125 29.6797 0.257812 26.4688 2.60156L18.9297 8.14062ZM6.57812 13.7109L17.5469 13.7734C17.5703 11.7109 15.875 10.3125 13.8438 10.3125C12.5078 10.3125 11.3281 10.9219 10.6562 11.8828C10.2578 11.7344 9.92969 11.6797 9.5 11.6797C8.0625 11.6719 6.86719 12.5547 6.57812 13.7109Z"
                     fill="black" fill-opacity="0.85" />
       </g>
</svg>